<?xml version="1.0" encoding="UTF-8" ?>
<!DOCTYPE svg PUBLIC "-//W3C//DTD SVG 1.1//EN" "http://www.w3.org/Graphics/SVG/1.1/DTD/svg11.dtd">
<svg width="464pt" height="103pt" viewBox="0 0 464 103" version="1.1" xmlns="http://www.w3.org/2000/svg">
<g id="#dddeddff">
</g>
<g id="#10100fff">
<path fill="#10100f" opacity="1.00" d=" M 50.78 3.05 C 57.12 3.05 63.47 3.04 69.81 3.05 C 69.81 34.27 69.81 65.48 69.81 96.70 C 63.46 96.70 57.12 96.70 50.78 96.70 C 50.78 95.36 50.78 94.03 50.78 92.70 C 39.99 101.25 23.05 99.10 14.04 88.95 C 1.94 75.76 2.46 52.90 15.46 40.48 C 24.75 31.56 40.61 30.12 50.86 38.22 C 50.65 26.50 50.82 14.77 50.78 3.05 M 33.41 49.40 C 23.84 53.13 21.70 65.94 25.66 74.49 C 28.62 81.98 39.24 84.61 45.36 79.37 C 51.29 74.32 51.70 65.38 49.68 58.38 C 47.69 51.77 40.25 46.57 33.41 49.40 Z" />
<path fill="#10100f" opacity="1.00" d=" M 244.07 3.05 C 250.41 3.06 256.75 3.01 263.08 3.09 C 263.08 34.28 263.09 65.48 263.08 96.67 C 256.75 96.73 250.41 96.68 244.08 96.70 C 244.07 95.36 244.07 94.02 244.07 92.68 C 237.07 98.05 227.47 99.39 219.16 96.60 C 210.07 93.84 203.13 85.98 200.33 77.05 C 196.49 64.89 198.75 50.27 208.04 41.09 C 217.20 31.59 233.67 29.90 244.09 38.33 C 244.05 26.57 244.08 14.81 244.07 3.05 M 226.38 49.46 C 216.51 53.50 214.80 67.10 219.42 75.68 C 223.25 83.04 234.56 84.36 239.95 78.04 C 245.08 71.59 245.35 61.92 241.15 54.92 C 238.27 49.98 231.82 47.12 226.38 49.46 Z" />
<path fill="#10100f" opacity="1.00" d=" M 336.96 3.05 C 343.26 3.05 349.55 3.05 355.84 3.05 C 355.85 21.71 355.84 40.36 355.85 59.01 C 362.65 50.65 369.58 42.39 376.38 34.02 C 384.02 34.08 391.66 34.00 399.30 34.06 C 391.85 42.83 384.15 51.39 376.56 60.04 C 384.70 72.26 392.91 84.44 401.03 96.68 C 393.69 96.72 386.35 96.69 379.00 96.70 C 374.02 89.21 369.10 81.67 364.01 74.26 C 361.28 77.41 358.45 80.47 355.81 83.69 C 355.87 88.02 355.84 92.36 355.84 96.70 C 349.55 96.70 343.26 96.70 336.97 96.70 C 336.95 65.48 336.96 34.27 336.96 3.05 Z" />
<path fill="#10100f" opacity="1.00" d=" M 405.91 9.16 C 413.00 9.11 420.09 9.14 427.18 9.13 C 427.18 38.32 427.18 67.51 427.18 96.70 C 420.09 96.69 413.00 96.72 405.91 96.68 C 405.90 67.51 405.91 38.33 405.91 9.16 Z" />
<path fill="#10100f" opacity="1.00" d=" M 90.42 36.42 C 102.17 30.62 118.03 32.03 127.20 41.90 C 134.15 49.34 136.02 59.96 135.96 69.79 C 122.15 69.84 108.34 69.77 94.52 69.83 C 95.73 75.27 100.87 78.66 106.00 79.89 C 114.91 81.90 125.26 80.37 131.89 73.65 C 131.89 79.76 131.87 85.87 131.90 91.98 C 123.32 97.83 112.31 99.05 102.23 97.56 C 93.91 96.26 85.68 92.35 80.63 85.42 C 75.81 79.08 74.15 70.88 74.70 63.05 C 74.81 52.28 80.56 41.27 90.42 36.42 M 103.49 50.53 C 98.86 50.99 95.78 55.16 94.81 59.41 C 101.73 59.46 108.66 59.45 115.59 59.42 C 114.34 54.00 109.26 49.46 103.49 50.53 Z" />
<path fill="#10100f" opacity="1.00" d=" M 296.15 33.22 C 304.86 32.32 314.11 34.40 321.01 39.98 C 326.37 44.22 329.95 50.47 331.40 57.12 C 333.03 66.70 332.32 77.33 326.38 85.39 C 315.43 100.98 290.19 102.35 276.81 89.22 C 266.77 79.20 265.20 62.73 270.95 50.13 C 275.38 40.35 285.61 34.05 296.15 33.22 M 297.25 50.11 C 284.43 53.29 283.22 73.81 294.23 79.92 C 297.42 81.44 301.22 81.46 304.56 80.41 C 308.91 78.81 311.74 74.49 312.64 70.09 C 313.29 65.22 313.29 59.84 310.45 55.61 C 307.79 51.22 302.22 48.97 297.25 50.11 Z" />
<path fill="#10100f" opacity="1.00" d=" M 134.45 34.06 C 141.59 34.01 148.74 34.06 155.88 34.03 C 159.58 49.34 163.51 64.59 167.20 79.91 C 171.07 64.65 174.60 49.31 178.45 34.05 C 185.57 33.97 192.69 34.12 199.81 33.99 C 194.10 54.91 188.12 75.74 182.48 96.67 C 172.44 96.75 162.40 96.65 152.35 96.73 C 146.15 75.91 140.44 54.95 134.45 34.06 Z" />
<path fill="#10100f" opacity="1.00" d=" M 442.41 73.57 C 447.22 72.26 453.13 72.42 456.84 76.20 C 462.77 81.58 461.51 92.75 454.24 96.36 C 447.70 100.09 437.85 97.40 435.32 89.97 C 432.86 83.73 435.92 75.80 442.41 73.57 Z" />
</g>
</svg>
