<svg id="Layer_1" data-name="Layer 1" xmlns="http://www.w3.org/2000/svg" viewBox="0 0 3146.87 751.71"><defs><style>.cls-1{stroke:#000;stroke-miterlimit:10;stroke-width:3px;}.cls-2{opacity:0.7;}</style></defs><path class="cls-1" d="M448.47,1572.83c14.11-5.26,29.28-6.95,44.29-6.84q142.43.15,284.89,0c20.86.1,42.24-1.42,62.46,4.9,41.6,12,74.31,49.76,80,92.68,1.79,11.48,3.95,27.17-8.47,33.44-12.49,7.32-29.5-2.9-27.86-17.59-.32-39.76-34.65-75.36-74.68-75.51-107-.48-214-.27-320.91-.16-40.82-1.16-77.89,35-77.31,75.88-1.48,39.5,32.28,76.57,72,77.47,107,.15,214.06.47,321.07.26,37.18-1,74.41,17,95.85,47.5,27.06,36.44,28.75,89.37,4.31,127.6-19.64,32.86-57.08,53.66-95.21,54-96.47.53-193-.21-289.42.42-22.17,0-45,1.74-66.3-5.53-47.19-15.32-81.68-63.4-80-113.11-.1-17.59,26.6-24.23,34.76-8.59,4.84,12.06,2.69,25.86,7.9,37.92,10.85,29.59,40.34,52.08,72.36,51.5,107.11-.32,214.22.42,321.28-.42,43.13-.16,79.57-42.45,73.73-85.1-3.69-36.44-36.55-68.51-73.78-67.78-100.27-.15-200.48.16-300.75-.15-20.75-.9-42.23.21-61.88-7.8-44-16.06-75.35-61.56-73.67-108.53C372.64,1632.71,404.5,1588.16,448.47,1572.83Z" transform="translate(-371.55 -1564.45)"/><path class="cls-1" d="M1138.23,1573c12.69-4.21,26.12-5.79,39.44-5.79q145,.24,290.06,0c22.7-.16,46.18-1.37,67.62,7.48,46.18,17.06,77.62,66.46,72.72,115.59-3,55.88-53.08,103.85-109,104.75-101.84,1.73-203.74.1-305.59.84-11,0-26.38.31-30.76-12.38-6.84-12.9,6.59-28.22,20.28-26.28q155.61-.15,311.23,0c28.28.79,55.77-16.58,68.35-41.81,16.8-31.23,7-73-21.38-94.16-16-13.53-37.6-17.22-58-16.58-103.53.42-207.12-.22-310.65.31-39.34.21-74.09,34.86-74.62,74.15-.32,95,0,189.89-.1,284.84.73,7.9-2.48,16.7-10.38,19.8-12.9,7.85-29.7-5.53-27.17-19.74q-.16-142.18,0-284.48C1060.08,1632.23,1093.2,1587.47,1138.23,1573Z" transform="translate(-371.55 -1564.45)"/><path class="cls-1" d="M1854.21,1572c34.34-10.16,74.78-5.53,102.58,18.38,23.23,19.8,37.6,47.4,52.14,73.73q78.12,146.92,153.24,295.37c10.85,20.28-22.85,37.6-33.17,17.28-54.35-103.9-106.75-208.86-162.94-311.76-12.74-21-25.38-45.29-49.34-55.19-25.7-9.84-58.14-5.84-77.25,15.12-15.7,17-26.49,37.7-37.55,57.82-51.66,96.37-101.32,193.79-151.35,291-3.74,9.11-15.43,15.74-24.75,10.74-11.85-4.11-15.38-19.54-8.22-29.39,52.24-101.58,104-203.43,158.3-303.9C1793.86,1618.59,1816.4,1583.31,1854.21,1572Z" transform="translate(-371.55 -1564.45)"/><path class="cls-1" d="M2343.54,1571.52c14.59-4.9,30.12-5.38,45.39-5.22,105.22.42,210.54-.26,315.76.32,60.19,1.58,112,58.72,107,118.8-3.27,15.64-26.28,19-34.55,5.74-4.53-13.69-3-29-9.64-42-11.69-26.28-39.07-44.92-68-45-107-.27-213.85-.06-320.81-.11-40.39-1.16-77.36,34.7-76.88,75.2-.21,63.3,0,126.65-.11,190-1.16,37.18,28.81,72.57,66,76.57,108.85,5.32,217.91,2.69,326.86,3.37,30.28,1,60.35-16.9,72.68-44.71,6.79-13.11,5.63-28.28,9.63-42.13,7.85-14,33.08-10.11,35,6.43,4.37,61.56-50.45,118.75-112.11,117.91-110.64-.64-221.44,2.26-332.08-3-55.4-3.06-103.06-53.4-103.48-108.85-.37-65.2-.16-130.45-.16-195.64C2263.18,1631,2297.67,1585.58,2343.54,1571.52Z" transform="translate(-371.55 -1564.45)"/><path class="cls-1" d="M3049.52,1571.88c18-5.79,37.12-5,55.82-4.89,129.86.15,259.72-.11,389.59.15,7.42-.79,15,2.16,18.64,8.9,9.79,12.38-3.9,31.55-18.91,28.55-136.92.21-273.84-.06-410.75.1-40.24-1.21-78.21,33.92-77.63,74.68-.05,65.14-.16,130.33,0,195.48.06,40.39,37.5,74.67,77.47,73.51,137.13.68,274.26,0,411.39.37,12.22-2.11,22.33,8.69,21.7,20.59-2.27,9.85-11,18.59-21.7,16.69-138.87,0-277.68.21-416.5-.1-58.82-.42-110.53-52.61-110.64-111.38q-.95-97.48-.05-195C2968.16,1630.87,3002.86,1585.37,3049.52,1571.88Z" transform="translate(-371.55 -1564.45)"/><path class="cls-1" d="M3153.58,1759.36c67.72-3.9,136.23-.63,204.27-1.63,14-2.27,27.7,13.48,20.64,26.59-3.74,10.48-16.11,12.22-25.7,11.8q-92.17-.24-184.42,0c-9.69.47-22.11-1.79-25.38-12.38C3138.2,1774.84,3144,1762.2,3153.58,1759.36Z" transform="translate(-371.55 -1564.45)"/><g class="cls-2"><path d="M888.75,2107.82h16.07v193.46h111.91l-1.78,8.9a7.44,7.44,0,0,1-7.3,6H888.75Z" transform="translate(-371.55 -1564.45)"/><path d="M1461.37,2213.77h-98.81v87.51h116.38l-1.38,8.62a7.44,7.44,0,0,1-7.35,6.26H1346.49V2107.82h120.24a7.44,7.44,0,0,1,7.44,7.44h0a7.44,7.44,0,0,1-7.44,7.44H1362.56v76.19h98.81a7.45,7.45,0,0,1,7.44,7.44h0A7.44,7.44,0,0,1,1461.37,2213.77Z" transform="translate(-371.55 -1564.45)"/><path d="M1818.82,2311.29a7.44,7.44,0,0,1-7,4.87h-11.18l76.49-208.34h19L1976,2316.16H1958.4l-27.08-72h-87.81Zm107.14-82c-23.21-61.91-35.12-91.67-39.29-105.66h-.3c-5,15.78-18.45,52.68-37.2,105.66Z" transform="translate(-371.55 -1564.45)"/><path d="M2326.85,2218.83v97.33h-16.37V2107.82h74.71c41.07,0,62.8,22,62.8,54.76,0,26-15.19,43.1-37.69,48.51a.32.32,0,0,0,0,.62c20.7,5.32,34.42,19.45,34.42,54.15v8c0,14.58-1.2,34.23,2.67,42.26H2431c-3.86-8.93-3-25.59-3-43.45v-5.36c0-34.23-10.12-48.52-50-48.52Zm0-14.88h50.3c36.61,0,53.57-13.69,53.57-41.07,0-25.6-16.66-40.18-49.1-40.18h-54.77Z" transform="translate(-371.55 -1564.45)"/><path d="M2796.49,2316.16V2107.82h23.82c32.44,50,108.63,166.37,121.73,189h.29c-1.78-30.06-1.48-60.71-1.48-94.64v-94.35h16.36v208.34h-22c-31-48.21-108.34-169.35-123.22-192.27h-.3c1.49,27.38,1.19,57.74,1.19,95.54v96.73Z" transform="translate(-371.55 -1564.45)"/></g></svg>