<?xml version="1.0" encoding="UTF-8" ?>
<!DOCTYPE svg PUBLIC "-//W3C//DTD SVG 1.1//EN" "http://www.w3.org/Graphics/SVG/1.1/DTD/svg11.dtd">
<svg width="465pt" height="106pt" viewBox="0 0 465 106" version="1.1" xmlns="http://www.w3.org/2000/svg">
<g id="#10100fff">
</g>
<g id="#dddeddff">
<path fill="#dddedd" opacity="1.00" d=" M 50.77 5.22 C 57.12 5.21 63.47 5.21 69.81 5.22 C 69.82 36.44 69.82 67.66 69.81 98.89 C 63.46 98.89 57.11 98.89 50.76 98.88 C 50.77 97.57 50.79 96.26 50.81 94.96 C 43.86 100.35 34.20 101.74 25.94 98.83 C 16.32 95.87 9.15 87.26 6.66 77.67 C 3.19 65.12 6.50 50.29 16.65 41.70 C 26.01 33.72 41.03 32.70 50.81 40.51 C 50.72 28.74 50.79 16.98 50.77 5.22 M 35.24 51.08 C 24.47 53.58 21.38 67.43 25.54 76.46 C 28.30 84.01 38.74 86.87 45.00 81.91 C 50.81 77.44 51.51 69.16 50.19 62.47 C 48.90 55.76 42.38 49.58 35.24 51.08 Z" />
<path fill="#dddedd" opacity="1.00" d=" M 244.07 5.22 C 250.41 5.23 256.74 5.18 263.08 5.25 C 263.09 36.45 263.08 67.65 263.08 98.85 C 256.75 98.92 250.41 98.88 244.07 98.89 C 244.07 97.55 244.07 96.21 244.08 94.87 C 237.09 100.35 227.34 101.76 219.02 98.80 C 209.50 95.88 202.44 87.37 199.90 77.92 C 196.47 65.34 199.48 50.35 209.79 41.75 C 219.16 33.66 234.28 32.71 244.09 40.57 C 244.05 28.78 244.08 17.00 244.07 5.22 M 227.40 51.37 C 216.75 54.74 214.57 69.03 219.40 77.87 C 223.19 85.37 234.76 86.64 240.09 80.15 C 245.24 73.46 245.38 63.41 240.66 56.45 C 237.82 52.35 232.32 49.66 227.40 51.37 Z" />
<path fill="#dddedd" opacity="1.00" d=" M 336.97 5.22 C 343.26 5.21 349.55 5.21 355.84 5.21 C 355.87 23.86 355.79 42.51 355.89 61.16 C 362.73 52.91 369.55 44.63 376.35 36.34 C 384.00 36.38 391.65 36.29 399.30 36.39 C 391.77 45.00 384.32 53.69 376.58 62.12 C 384.47 74.52 392.94 86.55 400.95 98.87 C 393.61 98.90 386.27 98.89 378.94 98.88 C 374.00 91.40 369.05 83.92 364.02 76.49 C 361.30 79.64 358.48 82.71 355.82 85.91 C 355.86 90.24 355.84 94.56 355.84 98.89 C 349.55 98.89 343.26 98.89 336.97 98.89 C 336.96 67.66 336.97 36.44 336.97 5.22 Z" />
<path fill="#dddedd" opacity="1.00" d=" M 405.91 11.36 C 413.00 11.32 420.08 11.35 427.17 11.34 C 427.18 40.52 427.17 69.70 427.17 98.89 C 420.08 98.88 413.00 98.92 405.91 98.86 C 405.91 69.69 405.90 40.53 405.91 11.36 Z" />
<path fill="#dddedd" opacity="1.00" d=" M 89.96 38.93 C 102.45 32.48 120.01 34.42 128.80 46.09 C 134.50 53.39 135.99 63.02 135.94 72.04 C 122.13 72.06 108.32 72.01 94.52 72.06 C 95.74 77.72 101.16 81.08 106.46 82.28 C 115.26 84.01 125.36 82.57 131.89 75.93 C 131.85 81.63 131.95 87.34 131.88 93.04 C 132.18 94.49 130.65 95.03 129.70 95.65 C 121.94 100.08 112.72 100.86 103.97 100.11 C 95.68 98.99 87.29 95.72 81.80 89.15 C 76.32 82.84 74.15 74.22 74.67 65.99 C 74.63 55.17 80.14 44.01 89.96 38.93 M 99.96 53.95 C 97.14 55.63 95.57 58.68 94.81 61.78 C 101.74 61.82 108.67 61.81 115.60 61.78 C 114.80 59.84 114.18 57.74 112.74 56.15 C 109.77 52.43 104.04 51.77 99.96 53.95 Z" />
<path fill="#dddedd" opacity="1.00" d=" M 295.46 35.62 C 305.20 34.38 315.82 36.97 322.97 43.97 C 327.43 48.20 330.30 53.95 331.51 59.95 C 333.01 69.52 332.15 80.09 326.10 88.04 C 314.93 103.33 289.91 104.48 276.65 91.32 C 266.87 81.37 265.25 65.24 270.80 52.77 C 275.05 43.06 285.00 36.52 295.46 35.62 M 296.47 52.62 C 286.38 55.69 284.43 69.52 289.40 77.65 C 293.31 84.60 304.32 85.42 309.32 79.29 C 313.45 74.52 313.64 67.55 312.24 61.70 C 310.55 55.02 303.15 50.45 296.47 52.62 Z" />
<path fill="#dddedd" opacity="1.00" d=" M 134.47 36.36 C 141.61 36.34 148.75 36.36 155.89 36.35 C 159.55 51.66 163.57 66.87 167.16 82.20 C 171.12 66.96 174.55 51.59 178.46 36.34 C 185.56 36.34 192.67 36.39 199.77 36.31 C 194.11 57.19 188.11 77.98 182.49 98.87 C 172.44 98.92 162.39 98.85 152.34 98.91 C 146.13 78.14 140.44 57.20 134.47 36.36 Z" />
<path fill="#dddedd" opacity="1.00" d=" M 443.32 75.54 C 447.64 74.58 452.70 74.80 456.19 77.85 C 462.65 82.93 461.89 94.50 454.56 98.43 C 447.68 102.82 436.70 99.30 434.97 90.95 C 433.03 84.65 436.84 77.20 443.32 75.54 Z" />
</g>
</svg>
